<svg id="Alum" xmlns="http://www.w3.org/2000/svg" viewBox="0 0 120 120"><path d="M60 0a60 60 0 1 0 60 60A60 60 0 0 0 60 0Zm40.84 88.26c-.5.73-1 1.44-1.57 2.14-.52.67-1 1.32-1.6 2l-.07.07-17.77-20.11 21 15.9Zm2.42-52.66c.67 1.18 1.29 2.39 1.86 3.62l.35.77c.14.33.27.67.41 1L77 49.18l26.26-13.58Zm-1.72-2.82L80.38 43.7a11.4 11.4 0 0 1-11-.31l-1.29-.76A11.4 11.4 0 0 1 63.25 30l5.25-18.93a49.66 49.66 0 0 1 33.04 21.71Zm-65.82 70.55c-.73-.41-1.46-.84-2.16-1.29-.72-.46-1.42-.93-2.11-1.41h-.06l19.54-17.7-15.12 20.45Zm9.65-44.57A2.37 2.37 0 1 1 47 61.7a2.36 2.36 0 0 1-1.63-2.94Zm4.56 15.72a2.37 2.37 0 1 1 3.34-.21 2.36 2.36 0 0 1-3.34.21Zm5.69-63.95c.7-.06 1.4-.11 2.11-.15s1.51-.05 2.27-.05h1.89l-6.36 31.28V10.54Zm7 39.65a2.37 2.37 0 1 1-2.33-2.4 2.37 2.37 0 0 1 2.3 2.4Zm-8.89 12.06a6.35 6.35 0 1 1 5.52 7.09 6.36 6.36 0 0 1-5.52-7.09Zm12.73 9.06a2.37 2.37 0 1 1-.39 3.33 2.38 2.38 0 0 1 .39-3.33ZM70 59.57A2.37 2.37 0 1 1 73 61a2.38 2.38 0 0 1-3-1.43ZM51.79 11v25.66a11.42 11.42 0 0 1-4.19 8.83l-3 2.48-1.45 1.23a11.41 11.41 0 0 1-13.49 1.07l-15.43-9.6A49.72 49.72 0 0 1 51.79 11Zm-40.6 39.8c0-.17.07-.34.1-.51.11-.56.23-1.12.36-1.67 0-.15.07-.31.11-.47q.12-.54.27-1.08.22-.84.48-1.68l25.79 15-27.18-9.2c.03-.09.05-.19.07-.37Zm-.86 9.2c0-1.18.05-2.35.13-3.52l21.77 6.06a11.39 11.39 0 0 1 7.86 7.71l.43 1.43.79 1.91a11.41 11.41 0 0 1-3.55 13.33l-11.84 9.2A49.52 49.52 0 0 1 10.33 60ZM60 109.67a49.42 49.42 0 0 1-21.36-4.82L51.4 87.16a11.41 11.41 0 0 1 7.05-4.52l8.06-1.59 5-1.07a11.4 11.4 0 0 1 11.58 4.35l9.66 13A49.5 49.5 0 0 1 60 109.67Zm42.6-24.12-16.88-12.8a11.42 11.42 0 0 1-4.49-9.89v-.09l.2-1.86a11.4 11.4 0 0 1 9.17-10l17.49-3.39a49.82 49.82 0 0 1-5.5 38Z"/></svg>