<svg id="Layer_1" data-name="Layer 1" xmlns="http://www.w3.org/2000/svg" viewBox="0 0 975.85 125.19"><path d="M329.4 125.18c-.09-1.8-.23-3.19-.23-4.59 0-38.91.06-77.82-.07-116.72 0-3.36 1-4.08 4.08-4 12.54.15 25.1 0 37.64.19a7.27 7.27 0 0 1 4.88 2.16c16.92 20 33.7 40.05 50.53 60.09 2.14 2.57 4.34 5.09 7.28 8.53V.54a40.32 40.32 0 0 1 4.66-.63c12.07 0 24.13.06 36.2-.09 3.17 0 4 .89 4 4.15q-.17 58.35.08 116.72c0 3.73-1.21 4.61-4.71 4.56q-17.61-.28-35.23 0c-3.45.06-5.54-1.19-7.67-3.74Q404 89.34 376.94 57.34c-.66-.79-1.49-1.44-3-2.84v6c0 19.94-.1 39.88 0 59.81 0 3.64-.67 5.11-4.75 5-13.07-.31-26.19-.13-39.79-.13ZM237.49.45c18.48 0 37-.44 55.45.16 11.06.39 18.39 4.82 20.49 14.7a25.27 25.27 0 0 1 .6 5.19q.06 42 0 83.91c0 10.7-5.85 17.82-16.49 19.82a52 52 0 0 1-9.56.92q-48.74.09-97.47-.06a47.43 47.43 0 0 1-11.83-1.66c-9.25-2.48-13.94-8.07-14-17.68q-.35-43.15 0-86.31c.1-11.61 8.4-18.71 21.7-18.9 17-.25 34.08-.06 51.13-.06Zm31.78 99.74v-5.56c0-21.54-.14-43.08.1-64.62 0-4.18-1.21-5.15-5.14-5.1-16.4.19-32.82.27-49.22 0-4.54-.08-5.78 1.22-5.74 5.62q.28 32.79 0 65.59c0 3.75 1.34 4.18 4.46 4.16 16.57-.11 33.14 0 49.71-.06ZM703 99.86c1.41.12 2.8.33 4.19.33 31.85 0 63.7.06 95.54-.07 3.76 0 5.51.53 5.09 4.92a106.68 106.68 0 0 0 0 15.89c.19 3.55-1.22 4.37-4.47 4.33-11.74-.15-23.48-.07-35.22-.07H664.84c-6.43 0-6.3 0-6.3-6.28q0-57.37-.12-114.75c0-3.43.64-4.36 4.17-4.35q71.64.17 143.29 0a5.77 5.77 0 0 1 1.34.48V25h-6.31c-31 0-62.08 0-93.12-.08-3.73 0-5.16.81-4.88 4.81a92.26 92.26 0 0 1-.07 16.37c-.4 3.74 1.17 4 3.95 4h27c22.84 0 45.68 0 68.51-.09 3.16 0 4.32.77 4.2 4-.21 5.61-.21 11.25 0 16.87.12 3.25-.66 4.36-4.28 4.34-31.36-.18-62.73 0-94.09-.19-4.24 0-5.62.93-5.27 5.37.51 6.16.14 12.42.14 19.46ZM927.11 79.21c-26.69-3.67-52.89-7.22-79.06-10.93a94.21 94.21 0 0 1-13.56-3c-7.43-2.2-11.55-7.91-11.63-15.79-.1-9.16 0-18.32 0-27.48 0-13.21 5.85-19.74 19.07-21.3a105 105 0 0 1 12-.73c36.18 0 72.37 0 108.55-.06 2.86 0 3.66.91 3.62 3.56-.08 5.94-.18 11.89.12 17.82.16 3.19-1.1 3.8-3.9 3.76-8.36-.11-16.73 0-25.09 0-21.55 0-43.1.06-64.65-.09-3.84 0-5.8.83-5.24 5.06a50.24 50.24 0 0 1 0 6.26c0 7.59 0 7.56 7.23 8.59 20.3 2.89 40.6 5.75 60.89 8.74 7.59 1.12 15.22 2.23 22.69 3.94 9.2 2.09 13.93 8.16 14.09 17.54q.26 15.67 0 31.34c-.18 11.37-8.2 18.61-21.83 18.69-41.33.25-82.67.1-124 .14-2.29 0-3.65-.44-3.61-3.14.1-7 0-14.1 0-21.65h104.31ZM92.41 25H6.23V-.1h5.7q66.62 0 133.24-.09c3.12 0 4.29.75 4.21 4-.16 6.42.3 12.85 0 19.25-.09 1.68-1.82 3.63-3.31 4.83Q111.58 55.77 77 83.44c-6.49 5.21-13 10.45-20.3 16.37H149V125c-1.38.06-2.61.17-3.85.17-46.5 0-93-.06-139.51.13-4.67 0-5.84-1.44-5.55-5.77.36-5.12-.18-10.3.27-15.41a10.08 10.08 0 0 1 3-6.37C20.09 84 37.08 70.58 54 57q18.42-14.71 36.77-29.56A12.56 12.56 0 0 0 92.41 25ZM546 25h-52.46c0-7.94-.09-15.42.14-22.9 0-.77 1.9-2 3-2.12 3.51-.28 7.07-.11 10.6-.11 43.58 0 87.16.12 130.74 0 4.52 0 5.49 1.5 5.22 5.54a112.38 112.38 0 0 0-.05 14.45c.24 3.9-.79 5.32-5 5.24-13.82-.25-27.66-.08-41.49-.07h-5.8v6.44c0 29.73-.08 59.46.05 89.19 0 3.62-1.06 4.7-4.65 4.64q-17.84-.3-35.69 0c-3.45 0-4.68-.69-4.66-4.53.18-29.08.08-58.17.06-87.25Z"/></svg>