<svg xmlns="http://www.w3.org/2000/svg" viewBox="0 0 120 120"><path d="M120 59.09A60 60 0 1 0 60.91 120 60 60 0 0 0 120 59.09Zm-12.72 16.14-26.65-9.85q.21-.81.36-1.65l28.32 2.18a49.72 49.72 0 0 1-2.03 9.32Zm-6 12.35L78.37 70.82c.29-.48.55-1 .8-1.49l26.65 9.85a49.44 49.44 0 0 1-4.51 8.4ZM13.1 76.36l27.2-8.21c.22.52.45 1 .71 1.53L17.1 85a49 49 0 0 1-4-8.64ZM10.42 62.9l28.4-.45c.07.56.16 1.12.27 1.67l-27.21 8.21a50.38 50.38 0 0 1-1.46-9.43Zm1.09-13.67L39 56.56c-.09.55-.16 1.11-.2 1.68l-28.41.46a50.78 50.78 0 0 1 1.12-9.47Zm4.8-12.86L40.7 50.93c-.24.51-.45 1-.65 1.56L12.6 45.16a49.1 49.1 0 0 1 3.71-8.79Zm91.9 11.7-27.84 5.65a21.6 21.6 0 0 0-.56-1.6l25.23-13a48.5 48.5 0 0 1 3.17 8.95ZM73 59.8a1.95 1.95 0 1 1-2-1.91 1.94 1.94 0 0 1 2 1.91Zm-13 3.69A3.49 3.49 0 1 1 63.49 60a3.49 3.49 0 0 1-3.44 3.49Zm2.06 7.56a1.94 1.94 0 1 1-2-1.92 1.94 1.94 0 0 1 2.05 1.92ZM57.89 49a1.94 1.94 0 1 1 2 1.91 2 2 0 0 1-2-1.91Zm-7 11.18a1.94 1.94 0 1 1-2-1.91 1.95 1.95 0 0 1 1.98 1.87Zm30.44-.61c0-.57 0-1.13-.11-1.69l27.85-5.65a49.67 49.67 0 0 1 .62 7.06v2.46Zm21.8-24.2L77.87 48.38c-.31-.47-.63-.93-1-1.38L97.6 27.54a50.23 50.23 0 0 1 5.51 7.79ZM74 43.94c-.42-.37-.86-.73-1.31-1.06l14.59-24.39a49.33 49.33 0 0 1 7.43 6Zm-4.92-3.23q-.77-.36-1.56-.66l7.35-27.44a49.13 49.13 0 0 1 8.79 3.72ZM63.46 39l-.86-.13.67-28.39a49.56 49.56 0 0 1 7.55 1.07Zm-4.4-28.63-.67 28.41h-.57L52.14 11a49.3 49.3 0 0 1 6.92-.66ZM48 11.8l5.7 27.83c-.54.17-1.07.36-1.6.57L39 15a48.52 48.52 0 0 1 9-3.2Zm-12.71 5.11 13.08 25.23c-.47.31-.94.63-1.38 1l-19.48-20.7a49.79 49.79 0 0 1 7.78-5.53Zm-10.85 8.41L43.92 46q-.56.64-1.05 1.32L18.46 32.76a50.49 50.49 0 0 1 5.98-7.44Zm18.84 47.9c.35.45.72.88 1.1 1.29l-18.8 21.3a49.87 49.87 0 0 1-6.21-7.24Zm4.26 4.08c.45.33.93.63 1.41.93l-12.26 25.64a50.1 50.1 0 0 1-7.95-5.28Zm5.21 2.75c.52.19 1.06.36 1.61.51l-4.78 28a49.09 49.09 0 0 1-9.09-2.88Zm8 29.62a51 51 0 0 1-7-.4l4.78-28c.56 0 1.12.06 1.69.06l3.07 28.25c-.85.04-1.69.07-2.53.09Zm6.69-.57-3.06-28.24c.56-.11 1.11-.25 1.64-.41l10.68 26.33a48.93 48.93 0 0 1-9.25 2.32Zm13.16-3.9L69.92 78.87c.5-.27 1-.55 1.47-.85l17.47 22.4a49.36 49.36 0 0 1-8.25 4.78Zm11.58-7.36L74.71 75.43c.4-.39.8-.79 1.17-1.21L98.83 91a50.66 50.66 0 0 1-6.64 6.84Z" id="Spok"/></svg>