<svg xmlns="http://www.w3.org/2000/svg" viewBox="0 0 120 120"><g id="Spok"><path d="M120,59.09A60,60,0,1,0,60.91,120,60,60,0,0,0,120,59.09ZM107.28,75.23,80.63,65.38q.21-.81.36-1.65l28.32,2.18A49.72,49.72,0,0,1,107.28,75.23Zm-6,12.35L78.37,70.82c.29-.48.55-1,.8-1.49l26.65,9.85A49.44,49.44,0,0,1,101.31,87.58ZM13.1,76.36l27.2-8.21c.22.52.45,1,.71,1.53L17.1,85A49,49,0,0,1,13.1,76.36ZM10.42,62.9l28.4-.45c.07.56.16,1.12.27,1.67L11.88,72.33A50.38,50.38,0,0,1,10.42,62.9Zm1.09-13.67L39,56.56c-.09.55-.16,1.11-.2,1.68l-28.41.46A50.78,50.78,0,0,1,11.51,49.23Zm4.8-12.86L40.7,50.93c-.24.51-.45,1-.65,1.56L12.6,45.16A49.1,49.1,0,0,1,16.31,36.37Zm91.9,11.7L80.37,53.72c-.17-.54-.35-1.08-.56-1.6l25.23-13A48.5,48.5,0,0,1,108.21,48.07ZM73,59.8a1.95,1.95,0,1,1-2-1.91A1.94,1.94,0,0,1,73,59.8Zm-13,3.69A3.49,3.49,0,1,1,63.49,60,3.49,3.49,0,0,1,60.05,63.49Zm2.06,7.56a1.94,1.94,0,1,1-2-1.92A1.94,1.94,0,0,1,62.11,71.05ZM57.89,49a1.94,1.94,0,1,1,2,1.91A2,2,0,0,1,57.89,49Zm-7,11.18a1.94,1.94,0,1,1-2-1.91A1.95,1.95,0,0,1,50.87,60.14Zm30.44-.61c0-.57,0-1.13-.11-1.69l27.85-5.65a49.67,49.67,0,0,1,.62,7.06q0,1.23,0,2.46Zm21.8-24.2L77.87,48.38c-.31-.47-.63-.93-1-1.38L97.6,27.54A50.23,50.23,0,0,1,103.11,35.33ZM74,43.94c-.42-.37-.86-.73-1.31-1.06L87.28,18.49a49.33,49.33,0,0,1,7.43,6Zm-4.92-3.23q-.77-.36-1.56-.66l7.35-27.44a49.13,49.13,0,0,1,8.79,3.72ZM63.46,39l-.86-.13.67-28.39a49.56,49.56,0,0,1,7.55,1.07Zm-4.4-28.63-.67,28.41-.57,0L52.14,11A49.3,49.3,0,0,1,59.06,10.34ZM48,11.8,53.7,39.63c-.54.17-1.07.36-1.6.57L39,15A48.52,48.52,0,0,1,48,11.8ZM35.29,16.91,48.37,42.14c-.47.31-.94.63-1.38,1L27.51,22.44A49.79,49.79,0,0,1,35.29,16.91ZM24.44,25.32,43.92,46q-.56.64-1.05,1.32L18.46,32.76A50.49,50.49,0,0,1,24.44,25.32Zm18.84,47.9c.35.45.72.88,1.1,1.29l-18.8,21.3a49.87,49.87,0,0,1-6.21-7.24Zm4.26,4.08c.45.33.93.63,1.41.93L36.69,103.87a50.1,50.1,0,0,1-7.95-5.28Zm5.21,2.75c.52.19,1.06.36,1.61.51l-4.78,28a49.09,49.09,0,0,1-9.09-2.88Zm8,29.62a51,51,0,0,1-7-.4l4.78-28c.56,0,1.12.06,1.69.06l3.07,28.25C62.44,109.62,61.6,109.65,60.76,109.67Zm6.69-.57L64.38,80.86c.56-.11,1.11-.25,1.64-.41L76.7,106.78A48.93,48.93,0,0,1,67.45,109.1Zm13.16-3.9L69.92,78.87c.5-.27,1-.55,1.47-.85l17.47,22.4A49.36,49.36,0,0,1,80.61,105.2Zm11.58-7.36L74.71,75.43c.4-.39.8-.79,1.17-1.21L98.83,91A50.66,50.66,0,0,1,92.19,97.84Z"/></g></svg>